<?xml version="1.0" encoding="utf-8"?>
<!-- Generator: Adobe Illustrator 21.0.0, SVG Export Plug-In . SVG Version: 6.00 Build 0)  -->
<svg version="1.1" id="Layer_1" xmlns="http://www.w3.org/2000/svg" xmlns:xlink="http://www.w3.org/1999/xlink" x="0px" y="0px"
	 viewBox="0 0 560 288" style="enable-background:new 0 0 560 288;" xml:space="preserve">
<style type="text/css">
	.st0{fill:#FFFFFF;}
	.st1{fill:#FFFFFF;stroke:#FFFFFF;stroke-miterlimit:10;}
	.st2{fill:#E90C00;stroke:#FFFFFF;stroke-miterlimit:10;}
</style>
<rect x="7" y="32.7" class="st0" width="543.5" height="44"/>
<path class="st1" d="M550.5,208.6v44H89c-30,0-56.2-17.7-70.2-44H550.5z"/>
<path class="st1" d="M171.3,120.7H139v44c0,24.3-19.7,44-44,44c-24.3,0-44-19.7-44-44H7c0,16,4.3,31.1,11.8,44
	c15.2,26.3,43.6,44,76.2,44c32.6,0,61-17.7,76.2-44c7.5-12.9,11.8-28,11.8-44C183,148.6,178.7,133.6,171.3,120.7z"/>
<path class="st1" d="M409.3,120.7c-3.3-16.3-10.2-31.2-19.8-44c-20.1-26.7-52-44-88-44c-36,0-67.9,17.3-88,44h88
	c28.7,0,53.2,18.4,62.2,44c2.4,6.9,3.8,14.3,3.8,22c0,7.7-1.3,15.1-3.8,22c-9,25.6-33.5,44-62.2,44h-88c20.1,26.7,52,44,88,44
	c36,0,67.9-17.3,88-44c9.6-12.8,16.5-27.7,19.8-44c1.4-7.1,2.2-14.5,2.2-22C411.5,135.1,410.8,127.8,409.3,120.7z"/>
<rect x="139" y="76.7" class="st1" width="44" height="88"/>
<rect x="225.5" y="76.7" class="st1" width="44" height="132"/>
<rect x="459.8" y="76.7" class="st1" width="44" height="132"/>
<path class="st2" d="M319.2,142.6c0,3.7-3,6.7-6.7,6.7c-3.7,0-6.7-3-6.7-6.7c0-3.7,3-6.7,6.7-6.7C316.2,136,319.2,139,319.2,142.6z"
	/>
</svg>
